<svg xmlns="http://www.w3.org/2000/svg" width="178" height="52" viewBox="0 0 178 52"><rect width="100%" height="100%" fill="#393939"/><path fill="#cccccc" d="M47.265 32.99h3.38v2.41h-10.4v-2.41h3.81V22.04q0-.65.03-1.34l-2.7 2.26q-.23.18-.46.23-.23.04-.43 0-.2-.04-.36-.13-.15-.1-.23-.22l-1.01-1.39 5.73-4.87h2.64v16.41Zm6.21-16.39h12.99v1.39q0 .63-.13 1.01t-.26.64l-7.13 14.67q-.22.45-.62.77t-1.08.32h-2.33l7.27-14.37q.25-.44.49-.81.24-.37.54-.71h-9q-.3 0-.52-.22-.22-.22-.22-.52V16.6Zm21.41 16.5q.8 0 1.39-.23.6-.23 1.01-.63.41-.4.62-.96.21-.56.21-1.21 0-1.55-.86-2.34-.86-.79-2.37-.79-1.51 0-2.36.79-.86.79-.86 2.34 0 .65.21 1.21.2.56.61.96.41.4 1.01.63.6.23 1.39.23Zm0-14.29q-.71 0-1.23.22t-.87.59q-.34.37-.5.86-.17.48-.17 1.01 0 .56.14 1.09.14.52.46.93.33.41.86.66.53.24 1.31.24t1.32-.24q.53-.25.85-.66.33-.41.46-.93.14-.53.14-1.09 0-.53-.17-1.01-.17-.49-.5-.86-.34-.37-.86-.59-.52-.22-1.24-.22Zm3.17 6.79q1.72.56 2.54 1.71.82 1.15.82 2.81 0 1.25-.48 2.26-.47 1.02-1.33 1.73-.86.72-2.06 1.11-1.2.39-2.66.39-1.45 0-2.66-.39-1.2-.39-2.06-1.11-.85-.71-1.33-1.73-.47-1.01-.47-2.26 0-1.66.82-2.81.81-1.15 2.53-1.71-1.36-.57-2.05-1.63-.68-1.05-.68-2.53 0-1.07.44-1.99.43-.92 1.21-1.61.78-.68 1.87-1.06 1.08-.39 2.38-.39 1.3 0 2.39.39 1.08.38 1.86 1.06.78.69 1.22 1.61.43.92.43 1.99 0 1.48-.68 2.53-.68 1.06-2.05 1.63Zm24.37 5.5-1.71 1.67-4.4-4.4-4.45 4.43-1.7-1.68 4.44-4.46-4.23-4.23 1.69-1.69 4.23 4.23 4.22-4.21 1.71 1.69-4.22 4.23 4.42 4.42Zm13.66-11.59-.66 3.92q.62-.13 1.19-.19t1.11-.06q1.48 0 2.61.44t1.9 1.22q.77.78 1.16 1.83.39 1.05.39 2.26 0 1.49-.53 2.73-.53 1.23-1.46 2.11-.94.88-2.22 1.36-1.28.48-2.79.48-.88 0-1.68-.18-.79-.19-1.48-.49-.7-.31-1.29-.7-.59-.4-1.06-.84l.99-1.37q.31-.44.82-.44.32 0 .66.21t.77.45q.44.25 1.03.46.59.21 1.42.21.89 0 1.56-.29.68-.29 1.13-.8.45-.51.67-1.22.23-.71.23-1.54 0-1.54-.89-2.4-.89-.86-2.63-.86-1.34 0-2.74.49l-2.01-.57 1.56-9.13h9.29v1.37q0 .69-.43 1.11-.43.43-1.46.43h-5.16Zm17.07 12.9h4.82q.52 0 .83.29.3.29.3.78v1.92h-12.89v-1.07q0-.32.13-.68.14-.36.44-.64l5.71-5.72q.71-.73 1.28-1.39.56-.67.94-1.32.38-.65.58-1.32.2-.67.2-1.41 0-.67-.2-1.19-.19-.51-.55-.86-.36-.35-.86-.53-.5-.17-1.12-.17-.57 0-1.06.16-.49.16-.87.46-.37.29-.63.68-.26.39-.39.86-.22.59-.57.79-.36.19-1.02.09l-1.69-.3q.2-1.35.76-2.37.55-1.02 1.39-1.7.84-.69 1.93-1.03 1.08-.35 2.33-.35 1.3 0 2.38.39 1.08.38 1.85 1.08.76.7 1.19 1.69.43.99.43 2.2 0 1.04-.31 1.92-.3.89-.81 1.69-.52.81-1.21 1.56-.69.76-1.44 1.54l-4.24 4.33q.61-.19 1.22-.28.6-.1 1.15-.1Z"/></svg>